<svg xmlns="http://www.w3.org/2000/svg" version="1.1" xmlns:xlink="http://www.w3.org/1999/xlink" xmlns:svgjs="http://svgjs.dev/svgjs" viewBox="0 0 800 800"><g transform="matrix(1,0,0,1,0,0)"><path d="M684 288.9884033203125L878.0000123964749 400.99419936766753V625.0057914623776L684 737.0115875097327L489.9999876035252 625.0057914623776V400.99419936766753L684 288.9884033203125Z " stroke-width="14.5" stroke="#697565" fill="none" opacity="0.07" transform="rotate(99, 400, 400)"></path><path d="M660.3333231608074 283.8056233723958L850.6666686563179 393.6944713844916V613.4721674086832L660.3333231608074 723.3610154207788L469.9999776652968 613.4721674086832V393.6944713844916L660.3333231608074 283.8056233723958Z " stroke-width="14.625" stroke="#657061" fill="none" opacity="0.14750000000000002" transform="rotate(90.75, 400, 400)"></path><path d="M636.6666463216145 278.6228739420573L823.3333249161607 386.3947739188938V601.9385738725668L636.6666463216145 709.7104738494033L449.99996772706834 601.9385738725668V386.3947739188938L636.6666463216145 278.6228739420573Z " stroke-width="14.75" stroke="#606b5d" fill="none" opacity="0.225" transform="rotate(82.5, 400, 400)"></path><path d="M613 273.4400939941406L796.0000116935819 379.09504593571785V590.4049498188722L613 696.0599017604494L429.99998830641806 590.4049498188722V379.09504593571785L613 273.4400939941406Z " stroke-width="14.875" stroke="#5c6658" fill="none" opacity="0.3025" transform="rotate(74.25, 400, 400)"></path><path d="M589.3333231608074 268.25731404622394L768.666667953425 371.79531795254184V578.8713257651777L589.3333231608074 682.4093296714955L409.9999783681897 578.8713257651777V371.79531795254184L589.3333231608074 268.25731404622394Z " stroke-width="15" stroke="#576154" fill="none" opacity="0.38" transform="rotate(66, 400, 400)"></path><path d="M565.6666463216145 263.07456461588544L741.3333242132678 364.49562048694406V567.3377322290614L565.6666463216145 668.75878810012L389.99996842996126 567.3377322290614V364.49562048694406L565.6666463216145 263.07456461588544Z " stroke-width="15.125" stroke="#525b4f" fill="none" opacity="0.4575" transform="rotate(57.75, 400, 400)"></path><path d="M542 257.89178466796875L714.000010990689 357.19589250376805V555.8041081753668L542 655.1082160111661L369.999989009311 555.8041081753668V357.19589250376805L542 257.89178466796875Z " stroke-width="15.25" stroke="#4c554a" fill="none" opacity="0.5349999999999999" transform="rotate(49.5, 400, 400)"></path><path d="M518.3333231608073 252.70900472005212L686.6666672505319 349.89616452059215V544.2704841216722L518.3333231608073 641.4576439222122L349.9999790710825 544.2704841216722V349.89616452059215L518.3333231608073 252.70900472005212Z " stroke-width="15.375" stroke="#464e44" fill="none" opacity="0.6125" transform="rotate(41.25, 400, 400)"></path><path d="M494.6666463216145 247.52625528971356L659.333323510375 342.5964670549943V532.7368905855558L494.6666463216145 627.8071023508367L329.9999691328541 532.7368905855558V342.5964670549943L494.6666463216145 247.52625528971356Z " stroke-width="15.5" stroke="#40473e" fill="none" opacity="0.69" transform="rotate(33, 400, 400)"></path><path d="M471 242.34347534179688L632.0000102877962 335.29673907181837V521.2032665318612L471 614.1565302618827L309.9999897122039 521.2032665318612V335.29673907181837L471 242.34347534179688Z " stroke-width="15.625" stroke="#393e37" fill="none" opacity="0.7675000000000001" transform="rotate(24.75, 400, 400)"></path><path d="M447.3333231608073 237.16069539388025L604.6666665476391 327.99701108864247V509.6696424781668L447.3333231608073 600.505958172929L289.99997977397544 509.6696424781668V327.99701108864247L447.3333231608073 237.16069539388025Z " stroke-width="15.75" stroke="#31352f" fill="none" opacity="0.845" transform="rotate(16.5, 400, 400)"></path><path d="M423.6666768391927 231.97794596354169L577.3333533250602 320.6973136230446V498.1360489420504L423.6666768391927 586.8554166015533L270.00000035332516 498.1360489420504V320.6973136230446L423.6666768391927 231.97794596354169Z " stroke-width="15.875" stroke="#272926" fill="none" opacity="0.9225000000000001" transform="rotate(8.25, 400, 400)"></path><path d="M400 226.795166015625L550.0000095849032 313.3975856398686V486.60242488835587L400 573.2048445125995L249.99999041509682 486.60242488835587V313.3975856398686L400 226.795166015625Z " stroke-width="16" stroke="#191919" fill="none" opacity="1" transform="rotate(0, 400, 400)"></path></g></svg>